<svg width="119" height="186" viewBox="0 0 119 186" fill="none" xmlns="http://www.w3.org/2000/svg">
<g id="Group 161339">
<g id="Group 161337">
<path id="path708" d="M59.6159 177.919C56.1366 177.919 53.3177 175.1 53.3177 171.63C53.3177 168.158 56.1366 165.341 59.6159 165.341C63.0942 165.341 65.9132 168.158 65.9132 171.63C65.9132 175.1 63.0942 177.919 59.6159 177.919ZM102.809 0.0473633H16.4251C7.51702 0.0473633 0.226685 7.32045 0.226685 16.2166V169.833C0.226685 178.726 7.51702 185.999 16.4251 185.999H102.809C111.717 185.999 119.004 178.726 119.004 169.833V16.2166C119.004 7.32045 111.717 0.0473633 102.809 0.0473633Z" fill="#4E4E4E"/>
<path id="path710" d="M88.8612 6.52396H14.6259C10.6567 6.52396 7.42743 9.78451 7.42743 13.796V151.479C7.42743 155.492 10.6567 158.752 14.6259 158.752H104.608C108.576 158.752 111.806 155.492 111.806 151.479V29.4323L88.8612 6.52396Z" fill="white"/>
<path id="path712" d="M93.6194 31.9551C89.6022 31.9551 86.3322 28.7323 86.3322 24.7707V9.04672L109.278 31.9551H93.6194Z" fill="#D2D3D2"/>
<path id="path714" d="M79.863 49.2412H24.0705C23.2999 49.2412 22.6743 48.6178 22.6743 47.8476C22.6743 47.0764 23.2999 46.4529 24.0705 46.4529H79.863C80.6336 46.4529 81.2603 47.0764 81.2603 47.8476C81.2603 48.6178 80.6336 49.2412 79.863 49.2412Z" fill="#F4A837"/>
<path id="path716" d="M54.8169 61.3682H24.0705C23.2999 61.3682 22.6743 60.7447 22.6743 59.9735C22.6743 59.2033 23.2999 58.5798 24.0705 58.5798H54.8169C55.5895 58.5798 56.2141 59.2033 56.2141 59.9735C56.2141 60.7447 55.5895 61.3682 54.8169 61.3682Z" fill="#F4A837"/>
<path id="path718" d="M79.863 73.4961H24.0705C23.2999 73.4961 22.6743 72.8716 22.6743 72.1004C22.6743 71.3312 23.2999 70.7067 24.0705 70.7067H79.863C80.6336 70.7067 81.2603 71.3312 81.2603 72.1004C81.2603 72.8716 80.6336 73.4961 79.863 73.4961Z" fill="#F4A837"/>
<path id="path720" d="M68.0136 85.6226H24.0705C23.2999 85.6226 22.6743 84.9981 22.6743 84.2279C22.6743 83.4567 23.2999 82.8332 24.0705 82.8332H68.0136C68.7841 82.8332 69.4108 83.4567 69.4108 84.2279C69.4108 84.9981 68.7841 85.6226 68.0136 85.6226Z" fill="#F4A837"/>
<path id="path722" d="M52.4174 97.7539H24.0705C23.2999 97.7539 22.6743 97.1305 22.6743 96.3603C22.6743 95.5891 23.2999 94.9655 24.0705 94.9655H52.4174C53.189 94.9655 53.8136 95.5891 53.8136 96.3603C53.8136 97.1305 53.189 97.7539 52.4174 97.7539Z" fill="#F4A837"/>
<path id="path724" d="M79.863 110.593H24.0705C23.2999 110.593 22.6743 109.968 22.6743 109.197C22.6743 108.428 23.2999 107.803 24.0705 107.803H79.863C80.6336 107.803 81.2603 108.428 81.2603 109.197C81.2603 109.968 80.6336 110.593 79.863 110.593Z" fill="#F4A837"/>
</g>
<ellipse id="Ellipse 169" cx="59.3346" cy="172.074" rx="7.0128" ry="7.00106" fill="#F4A837"/>
</g>
</svg>
