<svg width="360" height="429" viewBox="0 0 360 429" fill="none" xmlns="http://www.w3.org/2000/svg">
<path d="M183.616 420.919C180.137 420.919 177.318 418.1 177.318 414.63C177.318 411.158 180.137 408.341 183.616 408.341C187.094 408.341 189.913 411.158 189.913 414.63C189.913 418.1 187.094 420.919 183.616 420.919ZM226.809 243.047H140.425C131.517 243.047 124.227 250.32 124.227 259.217V412.833C124.227 421.726 131.517 428.999 140.425 428.999H226.809C235.717 428.999 243.004 421.726 243.004 412.833V259.217C243.004 250.32 235.717 243.047 226.809 243.047Z" fill="#4E4E4E"/>
<path d="M212.861 249.524H138.626C134.657 249.524 131.427 252.785 131.427 256.796V394.479C131.427 398.492 134.657 401.752 138.626 401.752H228.608C232.576 401.752 235.806 398.492 235.806 394.479V272.432L212.861 249.524Z" fill="white"/>
<path d="M217.619 274.955C213.602 274.955 210.332 271.732 210.332 267.771V252.047L233.278 274.955H217.619Z" fill="#D2D3D2"/>
<path d="M203.863 292.241H148.07C147.3 292.241 146.674 291.618 146.674 290.848C146.674 290.076 147.3 289.453 148.07 289.453H203.863C204.634 289.453 205.26 290.076 205.26 290.848C205.26 291.618 204.634 292.241 203.863 292.241Z" fill="#F4A837"/>
<path d="M178.817 304.368H148.07C147.3 304.368 146.674 303.745 146.674 302.973C146.674 302.203 147.3 301.58 148.07 301.58H178.817C179.589 301.58 180.214 302.203 180.214 302.973C180.214 303.745 179.589 304.368 178.817 304.368Z" fill="#F4A837"/>
<path d="M203.863 316.496H148.07C147.3 316.496 146.674 315.872 146.674 315.1C146.674 314.331 147.3 313.707 148.07 313.707H203.863C204.634 313.707 205.26 314.331 205.26 315.1C205.26 315.872 204.634 316.496 203.863 316.496Z" fill="#F4A837"/>
<path d="M192.014 328.623H148.07C147.3 328.623 146.674 327.998 146.674 327.228C146.674 326.457 147.3 325.833 148.07 325.833H192.014C192.784 325.833 193.411 326.457 193.411 327.228C193.411 327.998 192.784 328.623 192.014 328.623Z" fill="#F4A837"/>
<path d="M176.417 340.754H148.07C147.3 340.754 146.674 340.13 146.674 339.36C146.674 338.589 147.3 337.966 148.07 337.966H176.417C177.189 337.966 177.814 338.589 177.814 339.36C177.814 340.13 177.189 340.754 176.417 340.754Z" fill="#F4A837"/>
<path d="M203.863 353.593H148.07C147.3 353.593 146.674 352.968 146.674 352.197C146.674 351.428 147.3 350.803 148.07 350.803H203.863C204.634 350.803 205.26 351.428 205.26 352.197C205.26 352.968 204.634 353.593 203.863 353.593Z" fill="#F4A837"/>
<ellipse cx="183.335" cy="415.074" rx="7.0128" ry="7.00106" fill="#F4A837"/>
<path d="M67.1225 173.36C67.1225 172.074 68.1666 171.037 69.4495 171.037H92.2411C93.5261 171.037 94.5692 172.074 94.5692 173.36V196.115C94.5692 197.394 93.5261 198.438 92.2411 198.438H69.4495C68.1666 198.438 67.1225 197.394 67.1225 196.115V173.36Z" fill="#4E4E4E"/>
<path d="M106.926 193.389C106.926 192.564 107.597 191.898 108.422 191.898H123.077C123.901 191.898 124.57 192.564 124.57 193.389V208.02C124.57 208.84 123.901 209.512 123.077 209.512H108.422C107.597 209.512 106.926 208.84 106.926 208.02V193.389Z" fill="#F4A837"/>
<path d="M113.797 233.639C113.797 233.161 114.187 232.773 114.666 232.773H123.196C123.673 232.773 124.063 233.161 124.063 233.639V242.152C124.063 242.632 123.673 243.021 123.196 243.021H114.666C114.187 243.021 113.797 242.632 113.797 242.152V233.639Z" fill="#4E4E4E"/>
<path d="M85.6895 210.198C85.6895 209.601 86.1733 209.114 86.7734 209.114H97.393C97.9932 209.114 98.478 209.601 98.478 210.198V220.802C98.478 221.398 97.9932 221.882 97.393 221.882H86.7734C86.1733 221.882 85.6895 221.398 85.6895 220.802V210.198Z" fill="#F4A837"/>
<path d="M106.926 215.813C106.926 215.451 107.221 215.156 107.583 215.156H114.008C114.372 215.156 114.665 215.451 114.665 215.813V222.228C114.665 222.588 114.372 222.881 114.008 222.881H107.583C107.221 222.881 106.926 222.588 106.926 222.228V215.813Z" fill="#4E4E4E"/>
<path d="M80.1462 37.5085C80.1462 36.6832 80.8178 36.0169 81.6425 36.0169H96.2977C97.1213 36.0169 97.7908 36.6832 97.7908 37.5085V52.1392C97.7908 52.9594 97.1213 53.6309 96.2977 53.6309H81.6425C80.8178 53.6309 80.1462 52.9594 80.1462 52.1392V37.5085Z" fill="#F4A837"/>
<path d="M92.1682 125.522C92.1682 124.696 92.8398 124.03 93.6644 124.03H108.32C109.143 124.03 109.813 124.696 109.813 125.522V140.152C109.813 140.973 109.143 141.644 108.32 141.644H93.6644C92.8398 141.644 92.1682 140.973 92.1682 140.152V125.522Z" fill="#F4A837"/>
<path d="M58.106 51.5105C58.106 50.6851 58.7776 50.0188 59.6022 50.0188H74.2574C75.0811 50.0188 75.7506 50.6851 75.7506 51.5105V66.1412C75.7506 66.9614 75.0811 67.6328 74.2574 67.6328H59.6022C58.7776 67.6328 58.106 66.9614 58.106 66.1412V51.5105Z" fill="#F4A837"/>
<path d="M45.0823 -7.12391C45.0823 -7.60178 45.4722 -7.98999 45.9519 -7.98999H54.4812C54.9589 -7.98999 55.3487 -7.60178 55.3487 -7.12391V1.38919C55.3487 1.8691 54.9589 2.2583 54.4812 2.2583H45.9519C45.4722 2.2583 45.0823 1.8691 45.0823 1.38919V-7.12391Z" fill="#4E4E4E"/>
<path d="M58.106 142.899C58.106 142.421 58.4959 142.033 58.9756 142.033H67.505C67.9826 142.033 68.3725 142.421 68.3725 142.899V151.412C68.3725 151.892 67.9826 152.281 67.505 152.281H58.9756C58.4959 152.281 58.106 151.892 58.106 151.412V142.899Z" fill="#4E4E4E"/>
<path d="M37.0676 24.0992C37.0676 23.5021 37.5514 23.0151 38.1515 23.0151H48.7711C49.3713 23.0151 49.8561 23.5021 49.8561 24.0992V34.7031C49.8561 35.2992 49.3713 35.7832 48.7711 35.7832H38.1515C37.5514 35.7832 37.0676 35.2992 37.0676 34.7031V24.0992Z" fill="#F4A837"/>
<path d="M21.0384 -6.90566C21.0384 -7.50275 21.5222 -7.98976 22.1223 -7.98976H32.7419C33.342 -7.98976 33.8269 -7.50275 33.8269 -6.90566V3.69826C33.8269 4.29432 33.342 4.77832 32.7419 4.77832H22.1223C21.5222 4.77832 21.0384 4.29432 21.0384 3.69826V-6.90566Z" fill="#F4A837"/>
<path d="M34.0621 46.6745C34.0621 46.3128 34.3571 46.0183 34.7194 46.0183H41.1443C41.5086 46.0183 41.8016 46.3128 41.8016 46.6745V53.0896C41.8016 53.4503 41.5086 53.7427 41.1443 53.7427H34.7194C34.3571 53.7427 34.0621 53.4503 34.0621 53.0896V46.6745Z" fill="#4E4E4E"/>
<path d="M51.2318 77.7979C51.9184 76.6799 53.3887 76.3275 54.5083 77.0128L74.361 89.1633C75.4869 89.8524 75.8332 91.3165 75.1467 92.4345L62.9705 112.263C62.2859 113.377 60.8257 113.727 59.6999 113.038L39.8471 100.888C38.7275 100.202 38.3711 98.7408 39.0557 97.6259L51.2318 77.7979Z" fill="#4E4E4E"/>
<path d="M92.1682 83.4025C92.1682 82.0912 93.2373 81.0236 94.5505 81.0236H117.837C119.158 81.0236 120.219 82.0912 120.219 83.4025V106.66C120.219 107.968 119.158 109.028 117.837 109.028H94.5505C93.2373 109.028 92.1682 107.968 92.1682 106.66V83.4025Z" fill="#4E4E4E"/>
<path d="M315.576 129.513C315.576 130.338 316.247 131.005 317.072 131.005H331.727C332.551 131.005 333.22 130.338 333.22 129.513V114.882C333.22 114.062 332.551 113.391 331.727 113.391H317.072C316.247 113.391 315.576 114.062 315.576 114.882V129.513Z" fill="#F4A837"/>
<path d="M327.598 41.4993C327.598 42.3246 328.269 42.991 329.094 42.991H343.749C344.573 42.991 345.242 42.3246 345.242 41.4993V26.8686C345.242 26.0484 344.573 25.377 343.749 25.377H329.094C328.269 25.377 327.598 26.0484 327.598 26.8686V41.4993Z" fill="#F4A837"/>
<path d="M293.535 115.511C293.535 116.336 294.207 117.002 295.032 117.002H309.687C310.511 117.002 311.18 116.336 311.18 115.511V100.88C311.18 100.06 310.511 99.3882 309.687 99.3882H295.032C294.207 99.3882 293.535 100.06 293.535 100.88V115.511Z" fill="#F4A837"/>
<path d="M280.512 174.145C280.512 174.623 280.902 175.011 281.381 175.011H289.911C290.388 175.011 290.778 174.623 290.778 174.145V165.632C290.778 165.152 290.388 164.763 289.911 164.763H281.381C280.902 164.763 280.512 165.152 280.512 165.632V174.145Z" fill="#4E4E4E"/>
<path d="M293.535 24.1224C293.535 24.6003 293.925 24.9885 294.405 24.9885H302.934C303.412 24.9885 303.802 24.6003 303.802 24.1224V15.6094C303.802 15.1294 303.412 14.7402 302.934 14.7402H294.405C293.925 14.7402 293.535 15.1294 293.535 15.6094V24.1224Z" fill="#4E4E4E"/>
<path d="M272.497 142.922C272.497 143.519 272.981 144.006 273.581 144.006H284.201C284.801 144.006 285.286 143.519 285.286 142.922V132.318C285.286 131.722 284.801 131.238 284.201 131.238H273.581C272.981 131.238 272.497 131.722 272.497 132.318V142.922Z" fill="#F4A837"/>
<path d="M256.468 173.927C256.468 174.524 256.952 175.011 257.552 175.011H268.171C268.772 175.011 269.256 174.524 269.256 173.927V163.323C269.256 162.727 268.772 162.243 268.171 162.243H257.552C256.952 162.243 256.468 162.727 256.468 163.323V173.927Z" fill="#F4A837"/>
<path d="M235.43 240.937C235.43 241.534 235.913 242.021 236.513 242.021H247.133C247.733 242.021 248.218 241.534 248.218 240.937V230.333C248.218 229.737 247.733 229.253 247.133 229.253H236.513C235.913 229.253 235.43 229.737 235.43 230.333V240.937Z" fill="#F4A837"/>
<path d="M269.492 120.347C269.492 120.709 269.787 121.003 270.149 121.003H276.574C276.938 121.003 277.231 120.709 277.231 120.347V113.932C277.231 113.571 276.938 113.279 276.574 113.279H270.149C269.787 113.279 269.492 113.571 269.492 113.932V120.347Z" fill="#4E4E4E"/>
<path d="M286.661 89.2231C287.348 90.3411 288.818 90.6934 289.938 90.0082L309.79 77.8577C310.916 77.1686 311.263 75.7045 310.576 74.5865L298.4 54.7584C297.715 53.6436 296.255 53.2938 295.129 53.9829L275.277 66.1334C274.157 66.8187 273.801 68.2802 274.485 69.3951L286.661 89.2231Z" fill="#4E4E4E"/>
<path d="M327.598 83.6185C327.598 84.9298 328.667 85.9974 329.98 85.9974H353.266C354.587 85.9974 355.649 84.9298 355.649 83.6185V60.3609C355.649 59.0532 354.587 57.9932 353.266 57.9932H329.98C328.667 57.9932 327.598 59.0532 327.598 60.3609V83.6185Z" fill="#4E4E4E"/>
<path d="M253.462 217.695C253.462 218.981 254.506 220.018 255.789 220.018H278.581C279.866 220.018 280.909 218.981 280.909 217.695V194.94C280.909 193.662 279.866 192.617 278.581 192.617H255.789C254.506 192.617 253.462 193.662 253.462 194.94V217.695Z" fill="#4E4E4E"/>
</svg>
